<?xml version="1.0" encoding="utf-8"?>
<!-- Generator: Adobe Illustrator 16.0.0, SVG Export Plug-In . SVG Version: 6.00 Build 0)  -->
<!DOCTYPE svg PUBLIC "-//W3C//DTD SVG 1.1//EN" "http://www.w3.org/Graphics/SVG/1.1/DTD/svg11.dtd">
<svg version="1.1" id="Layer_1" xmlns="http://www.w3.org/2000/svg" xmlns:xlink="http://www.w3.org/1999/xlink" x="0px" y="0px"
	 width="2723px" height="2723px" viewBox="0 0 2723 2723" style="enable-background:new 0 0 2723 2723;" xml:space="preserve">
<style type="text/css">
<![CDATA[
	.st0{fill:#FFFFFF;}
	.st1{fill-rule:evenodd;clip-rule:evenodd;fill:#FFFFFF;}
]]>
</style>
<g>
	<path class="st1" d="M1600.1,960.6c-1.1,45-7.2,76-14.2,88c-2.1-0.3-2.8-2.2-3.9-3.6c-11-14.3-20.9-29.4-29.2-45.5
		c-4.2-8.1-7.7-16.6-11.2-25c-7.8-19.1-11.3-39.1-12.9-59.5c-1.6-20.4,0.9-40.6,4.8-60.6c1.5-7.6,3.1-15.3,5.1-22.7
		c1.9-7,4.8-13.9,6.8-20.9c2.5-9,5.5-17.8,8.3-26.6c4.1-13,8.4-25.9,10.5-39.4c1.8-11.3,1.9-22.5-1.1-33.6c-0.2-0.8-0.4-1.6,0.1-2.4
		c2.4,0.5,4.2,2.3,6.2,3.7c41.5,29.2,70.6,68.3,90.5,114.6c15.7,36.4,24.9,74.6,30,113.9c6.4,49.3,6.4,98.7,2.7,148.2
		c-4.1,54.4-13.1,108-26,161c-4,16.3-8.4,32.5-13.3,48.6c-0.4,1.4-0.7,2.7-1.1,4.3c2.5,1.1,5,0.6,7.3,0.6c82.6,0,165.2,0,247.8,0
		c9.2,0,8.1-1.2,8.1,8.2c0,101.9,0,203.8,0,305.7c0,8.9,1,7.8-7.9,7.8c-92.3,0-184.5,0-276.8,0c-8.8,0-7.8-1-7.8,8
		c0,62.1,0,124.1,0,186.2c0,1.4,0,2.9,0,4.3c-0.1,4.6-0.1,4.6-4.9,4.8c-1,0-2.1,0-3.1,0c-91.4,0-182.9,0-274.3,0
		c-7,0-13.9-0.3-20.8-2c-7.1-1.7-12.8-5.4-17.1-11.3c-1.9-2.5-2.1-5.6-2.7-8.5c-1.1-5.1-0.2-10.2,0.2-15.3c0.6-7.6,3.8-14.5,6-21.5
		c1.8-5.4,5.4-10.4,8.2-15.6c7.8-14.5,16.9-28.1,26.1-41.7c8.8-13.1,17.8-26.1,26.8-39.1c7.2-10.4,14.5-20.7,21.6-31.1
		c9.9-14.5,20-29,29.5-43.8c10.7-16.7,21.5-33.3,31.9-50.2c11.9-19.4,23.4-39,34.4-58.9c10.9-19.7,21.2-39.7,30.8-60
		c11.2-23.9,22.1-48,31.2-72.8c2.3-6.2,4.5-12.6,6.8-18.7c2.3-6.1,4.5-12.5,6.6-18.6c2.9-8.6,6.6-16.9,8-26c0.5-3.2,2.6-6.2,3.5-9.6
		c6.5-23.2,12.8-46.5,17.5-70.2c4.7-23.8,8.8-47.7,11.4-71.8c5.4-48.3,6.8-96.7,3.2-145.2C1602.8,985.1,1602,973.4,1600.1,960.6z"/>
	<path class="st1" d="M1243.3,1627.1c-2.8-1-5.2-0.5-7.7-0.5c-72.1,0-144.2,0-216.3,0c-1.4,0-2.9,0-4.3,0c-4.4-0.1-4.5-0.1-4.6-4.3
		c0-1.4,0-2.9,0-4.3c0-101.5,0-203,0-304.5c0-8.5-1.2-7.6,7.4-7.6c48.9,0,97.8,0,146.8-0.5c-5.9-1.7-11.8-3.6-17.7-5
		c-4.3-1-8.2-2.7-12.3-4.3c-26.3-10.5-47.9-27.4-66.3-48.7c-12.3-14.3-23.1-29.7-33.8-45.1c-7.6-10.9-15.1-21.9-22.8-32.7
		c-21.8-30.5-46.1-58.7-74.9-82.9c-15.5-13-31.8-24.8-49-35.5c-1.7-1.1-3.4-2.2-5-3.3c0.5-2.3,2.3-1.7,3.5-2
		c42.5-8.5,85.4-11.9,128.7-9.5c32.7,1.8,64.7,7.3,96.2,16.8c37.1,11.3,71.5,27.7,102.6,50.7c33.7,24.9,60.9,55.5,79.5,93.4
		c2.5,5.1,4.7,10.4,7.9,15.6c0-2.3,0-4.7,0-7c0-64.7,0-129.4,0-194.2c0-7.5-0.9-6.7,6.4-6.7c72.5,0,145,0,217.6-0.1
		c3.9,0,7.2,0.9,10.5,2.8c21.5,12.5,34.2,31.5,40.5,55.1c10.1,38,4,74.9-8.8,111.1c-8.2,23.2-19.9,44.6-34.6,64.3
		c-20.2,27.1-44.9,48.9-75.3,64c-6.8,3.3-13.8,6.1-20.9,8.6c-17.3,6-35.2,8.9-53.5,9c-8.2,0-16.4,0.6-24.5-1.4
		c-2.1-0.5-3.5-1.6-5.2-2.3c-15.3-6.8-28.3-17.1-40.8-27.9c-11.3-9.8-22.1-20-32.8-30.3c-23.2-22.4-45.7-45.4-70.3-66.4
		c-19.5-16.6-39.6-32.3-62.4-44.4c-13.3-7-27.1-12.7-42.1-15.8c1,2.6,3.4,3.4,5.1,4.6c46.4,32.3,89.1,68.7,126.1,111.6
		c32,37.1,58.5,77.7,76.8,123.3c17.4,43.2,26.3,88,25.1,134.6c-0.6,21.6-3.4,42.8-8.1,64c-8.2,36.8-22.1,71.1-40.7,103.7
		c-19,33.4-42.3,63.5-68.6,91.4c-0.9,1-1.6,2.4-3.7,2.6C1237.4,1722.4,1245.5,1675.7,1243.3,1627.1z M1502.2,1178.5
		c0.1-36.2-29.5-65.8-65.8-65.8c-35.9,0-65.2,29.4-65.4,65.5c-0.2,34.2,26.9,65.6,65.8,65.8
		C1472.8,1244.2,1502.2,1214.4,1502.2,1178.5z"/>
	<path class="st0" d="M128.8,1221.7v331.2h129.8v62.6H49.8v-393.9H128.8z"/>
	<path class="st0" d="M300.1,1220c0-26,20.3-46.3,48.5-46.3c27.7,0,48.5,20.3,48.6,46.2c0,26-20.8,46.3-48.5,46.3
		C320.5,1266.3,300.1,1246,300.1,1220z M308.6,1303.5l79-0.1l0.2,312.6l-79,0.1L308.6,1303.5z"/>
	<path class="st0" d="M474,1368.3l-35.5,0l0-64.9l35.5,0l0-15.8c-0.1-76.7,43.4-112.3,131.4-110.2l0.1,66.6
		c-38.4-1.1-51.3,11.3-51.3,46.3l0,13l54.7,0l0.1,64.9l-54.7,0l0.2,247.7l-80.1,0.1L474,1368.3z"/>
	<path class="st0" d="M797,1620.8c-90.9,0.1-156.9-63.1-157-161.3c-0.1-98.8,64.2-161.4,156.8-161.5
		c90.3-0.1,154.1,61.4,154.2,154.5c0,10.2-0.5,20.3-2.2,30.5l-228.5,0.2c4,46.3,35.6,72.2,75.1,72.2c33.9,0,52.5-17,62.6-37.9
		l85.2-0.1C926.2,1575,874.3,1620.8,797,1620.8z M720.6,1430.2l148.4-0.1c-1.2-41.2-33.9-67.1-74.5-67.1
		C756.7,1363,726.8,1387.3,720.6,1430.2z"/>
	<path class="st0" d="M1982.2,1221.7l79-0.1l0.2,243.8c0,54.2,29.4,82.4,79.6,82.3c50.8,0,80.1-28.3,80.1-82.4l-0.2-243.8l79.6-0.1
		l0.2,243.2c0.1,103.8-74.4,154.7-160.7,154.7c-86.3,0.1-157.5-50.7-157.6-154.5L1982.2,1221.7z"/>
	<path class="st0" d="M2543.3,1297.4c80.1-0.1,142.8,62.5,142.9,160.1s-62.5,162.6-142.6,162.6c-49.1,0-84.1-24.2-103.3-49.6
		l0.2,193.6l-79,0.1l-0.4-461.6l79-0.1l0,45.1C2458.7,1321.2,2494.8,1297.5,2543.3,1297.4z M2522.5,1366.8
		c-42.3,0-82.4,32.8-82.3,92.1c0,59.3,40.1,91.9,82.5,91.9c42.9,0,82.9-33.9,82.9-93.2C2605.4,1398.4,2565.4,1366.8,2522.5,1366.8z"
		/>
</g>
</svg>
