<?xml version="1.0" encoding="utf-8"?>
<!-- Generator: Adobe Illustrator 16.0.0, SVG Export Plug-In . SVG Version: 6.00 Build 0)  -->
<!DOCTYPE svg PUBLIC "-//W3C//DTD SVG 1.1//EN" "http://www.w3.org/Graphics/SVG/1.1/DTD/svg11.dtd">
<svg version="1.1" id="Layer_1" xmlns="http://www.w3.org/2000/svg" xmlns:xlink="http://www.w3.org/1999/xlink" x="0px" y="0px"
	 width="2723px" height="2723px" viewBox="0 0 2723 2723" enable-background="new 0 0 2723 2723" xml:space="preserve">
<path fill-rule="evenodd" clip-rule="evenodd" fill="#545454" d="M1361.31,121.586c427.235,0.237,784.277,318.313,839.34,742.905
	c21.347,164.618-26.271,311.711-96.28,455.309c-86.301,177.027-196.146,339.341-313.045,497.154
	c-127.709,172.399-264.881,336.994-408.881,495.987c-14.188,15.664-24.488,24.565-43.168,3.787
	c-231.599-257.562-449.521-525.542-629.937-822.248c-55.738-91.664-103.712-187.209-144.711-286.548
	c-78.877-191.115-64.287-380.114,13.098-566.274C709.979,323.511,1016.831,121.396,1361.31,121.586z"/>
<path fill-rule="evenodd" clip-rule="evenodd" fill="#FE904D" d="M1355.454,224.32c405.366-1.784,735.018,322.083,732.244,727.028
	c-2.786,406.22-318.877,726.626-720.077,727.598c-439.92,1.066-744.425-354.488-735.977-745.773
	C640.012,545.627,968.703,220.296,1355.454,224.32z"/>
<path fill-rule="evenodd" clip-rule="evenodd" fill="#FEFEFE" d="M879.646,961.109c4.492-117.574,51.261-209.362,153.188-270.072
	c69.656-41.485,145.885-63.815,225.177-76.658c55.116-8.931,106.913-29.626,160.707-43.126
	c39.867-10.003,72.676,2.673,94.947,35.588c17.909,26.473,15.166,67.389-5.482,96.819c-7.936,11.308-17.998,19.569-30.468,23.842
	c-37.241,12.771-74.619,25.223-112.364,36.388c-17.104,5.061-33.152,1.013-38.883-18.597c-5.76-19.711,5.245-30.361,23.036-35.801
	c30.912-9.459,61.92-18.597,92.701-28.482c17.826-5.719,32.133-15.854,25.555-37.449c-6.176-20.245-23.753-21.815-39.825-15.93
	c-84.748,31.054-174.433,42.427-260.798,66.696c-62.011,17.424-119.441,45.207-164.621,92.529
	c-71.961,75.378-84.484,198.89-34.465,296.818c36.172,70.82,93.344,114.552,166.103,141.902
	c80.395,30.219,160.235,61.89,240.372,92.802c6.549,2.525,13.347,4.818,20.244,5.95c20.896,3.443,37.117-5.281,42.967-24.82
	c5.73-19.16-1.244-36.181-21.465-44.531c-15.836-6.543-32.039-12.202-47.909-18.656c-19.759-8.024-39.458-18.372-29.176-44.11
	c9.417-23.575,29.721-19.723,48.875-12.167c41.313,16.286,82.52,32.838,123.838,49.083c16.108,6.335,31.446,6.223,45.242-6.276
	c11.249-10.193,11.604-22.876,9.382-36.299c-2.513-15.207-14.49-20.956-26.841-25.999c-40.169-16.404-80.255-33.028-120.674-48.798
	c-17.969-7.011-32.073-17.121-24.713-37.882c7.894-22.253,26.8-21.916,45.592-14.686c70.649,27.179,141.161,54.736,211.745,82.081
	c10.359,4.018,20.642,8.51,31.345,11.313c21.762,5.707,39.505-2.146,46.575-22.911c6.875-20.221-0.07-38.516-21.744-46.985
	c-54.499-21.299-109.301-41.823-163.847-62.998c-27.286-10.591-54.321-21.827-81.394-32.957
	c-17.893-7.354-29.904-19.237-21.709-39.784c8.351-20.938,25.229-19.913,43.174-13.044c62.175,23.789,124.36,47.554,186.629,71.082
	c27.789,10.501,50.713,3.289,57.457-18.97c8.231-27.19-7.207-41.882-30.344-50.861c-62.168-24.126-124.301-48.366-186.759-71.733
	c-20.251-7.58-36.24-17.868-27.534-41.698c9.18-25.128,29.176-19.439,48.229-12.084c62.222,23.996,124.632,47.512,186.658,72.006
	c66.548,26.283,87.574,86.828,50.451,147.295c-7.586,12.351-8.001,19.219,0.178,31.368c27.665,41.094,26.325,83.812-1.269,118.096
	c-25.068,31.132-68.515,41.799-112.897,24.067c-20.114-8.042-26.812-4.718-32.513,15.948
	c-14.65,53.053-51.672,76.676-107.019,69.908c-12.63-1.547-18.426,0.213-20.28,13.802c-8.641,63.336-74.638,97.887-138.714,70.803
	c-96.707-40.868-197.942-71.857-292.131-117.592C944.066,1197.028,886.308,1092.984,879.646,961.109z"/>
<path fill-rule="evenodd" clip-rule="evenodd" fill="#FEFEFD" d="M1265.011,906.996c-2.898,7.965-6.596,20.565-12.001,32.382
	c-6.602,14.449-2.987,22.194,12.315,26.533c10.608,3.005,21.229,7.212,30.616,12.901c12.173,7.379,18.977,18.894,12.635,33.36
	c-6.306,14.359-19.652,25.572-33.638,17.542c-38.338-22.022-59.027-13.779-69.149,29.68c-3.639,15.64-20.102,19.278-35.227,13.625
	c-14.318-5.357-18.787-17.341-16.517-31.967c0.459-2.957,1.681-5.802,2.552-8.7c12.06-40.164,12.134-40.317-25.798-57.711
	c-16.541-7.586-27.528-18.289-20.203-37.627c7.008-18.502,21.157-23.018,39.316-16.025c5.651,2.181,11.853,3.408,16.935,6.501
	c19.898,12.113,31.182,6.703,36.424-15.705c2.033-8.706,5.903-17.323,10.549-24.998c7.083-11.698,18.58-15.574,31.523-11.829
	C1258.433,878.75,1265.005,888.333,1265.011,906.996z"/>
<g>
	<path fill="#FF914D" d="M554.094,2421.288h32.198v138.453h46.919v30.705h-79.118V2421.288z"/>
	<path fill="#FF914D" d="M737.569,2417.033c23.934,0,44.514,8.664,61.736,25.987c17.222,17.329,25.836,38.45,25.836,63.365
		c0,24.684-8.499,45.574-25.489,62.672c-16.994,17.098-37.612,25.644-61.851,25.644c-25.395,0-46.49-8.777-63.291-26.337
		c-16.799-17.554-25.199-38.409-25.199-62.554c0-16.179,3.911-31.054,11.737-44.619c7.823-13.572,18.582-24.322,32.278-32.258
		C707.016,2420.998,721.764,2417.033,737.569,2417.033z M737.226,2448.538c-15.657,0-28.82,5.446-39.484,16.333
		c-10.67,10.887-16.001,24.726-16.001,41.515c0,18.704,6.715,33.502,20.144,44.389c10.437,8.505,22.411,12.76,35.917,12.76
		c15.27,0,28.278-5.518,39.022-16.559s16.117-24.647,16.117-40.821c0-16.102-5.411-29.727-16.232-40.88
		C765.889,2454.115,752.727,2448.538,737.226,2448.538z"/>
	<path fill="#FF914D" d="M935.363,2417.033c23.934,0,44.514,8.664,61.736,25.987c17.222,17.329,25.836,38.45,25.836,63.365
		c0,24.684-8.499,45.574-25.49,62.672c-16.994,17.098-37.612,25.644-61.851,25.644c-25.395,0-46.49-8.777-63.291-26.337
		c-16.799-17.554-25.199-38.409-25.199-62.554c0-16.179,3.911-31.054,11.737-44.619c7.823-13.572,18.582-24.322,32.278-32.258
		C904.81,2420.998,919.558,2417.033,935.363,2417.033z M935.02,2448.538c-15.657,0-28.82,5.446-39.484,16.333
		c-10.67,10.887-16.001,24.726-16.001,41.515c0,18.704,6.714,33.502,20.144,44.389c10.437,8.505,22.411,12.76,35.917,12.76
		c15.27,0,28.278-5.518,39.022-16.559s16.117-24.647,16.117-40.821c0-16.102-5.411-29.727-16.232-40.88
		C963.683,2454.115,950.521,2448.538,935.02,2448.538z"/>
	<path fill="#FF914D" d="M1053.524,2421.288h32.545v58.316l45.921-58.316h38.661l-59.068,75.491l64.817,93.667h-38.181
		l-52.149-75.159v75.159h-32.545V2421.288z"/>
	<path fill="#FF914D" d="M1323.991,2417.033h32.085v108.897h15.065v29.786h-15.065v34.729h-31.504v-34.729h-73.832v-29.786
		L1323.991,2417.033z M1324.572,2525.931v-56.691l-38.64,56.691H1324.572z"/>
	<path fill="#FF914D" d="M1463.03,2421.288h32.198v138.453h46.92v30.705h-79.118V2421.288z"/>
	<path fill="#FF914D" d="M1646.506,2417.033c23.932,0,44.514,8.664,61.736,25.987c17.222,17.329,25.833,38.45,25.833,63.365
		c0,24.684-8.499,45.574-25.483,62.672c-16.997,17.098-37.615,25.644-61.854,25.644c-25.395,0-46.493-8.777-63.288-26.337
		c-16.801-17.554-25.199-38.409-25.199-62.554c0-16.179,3.912-31.054,11.734-44.619c7.823-13.572,18.585-24.322,32.275-32.258
		C1615.949,2420.998,1630.7,2417.033,1646.506,2417.033z M1646.162,2448.538c-15.657,0-28.82,5.446-39.481,16.333
		c-10.673,10.887-16.001,24.726-16.001,41.515c0,18.704,6.709,33.502,20.138,44.389c10.442,8.505,22.414,12.76,35.92,12.76
		c15.272,0,28.274-5.518,39.025-16.559c10.739-11.041,16.114-24.647,16.114-40.821c0-16.102-5.411-29.727-16.232-40.88
		C1674.822,2454.115,1661.666,2448.538,1646.162,2448.538z"/>
	<path fill="#FF914D" d="M1764.667,2421.288h32.542v58.316l45.924-58.316h38.664l-59.074,75.491l64.816,93.667h-38.184
		l-52.146-75.159v75.159h-32.542V2421.288z"/>
	<path fill="#FF914D" d="M1962.088,2421.288h32.654l65.061,169.158h-33.461l-13.233-34.842h-69.025l-13.761,34.842h-33.467
		L1962.088,2421.288z M1978.622,2466.134l-22.698,58.072h45.254L1978.622,2466.134z"/>
	<path fill="#FF914D" d="M2084.705,2421.288h32.192v138.453h46.925v30.705h-79.117V2421.288z"/>
</g>
</svg>
