<?xml version="1.0" encoding="utf-8"?>
<!-- Generator: Adobe Illustrator 16.0.0, SVG Export Plug-In . SVG Version: 6.00 Build 0)  -->
<!DOCTYPE svg PUBLIC "-//W3C//DTD SVG 1.1//EN" "http://www.w3.org/Graphics/SVG/1.1/DTD/svg11.dtd">
<svg version="1.1" id="Layer_1" xmlns="http://www.w3.org/2000/svg" xmlns:xlink="http://www.w3.org/1999/xlink" x="0px" y="0px"
	 width="96px" height="96px" viewBox="0 0 96 96" style="enable-background:new 0 0 96 96;" xml:space="preserve">
<style type="text/css">
<![CDATA[
	.st0{fill:#2CAAE1;}
	.st1{fill:#FFFFFF;}
]]>
</style>
<path class="st1" d="M48,0.8C21.9,0.8,0.8,21.9,0.8,48c0,26.1,21.2,47.3,47.3,47.3c26.1,0,47.3-21.2,47.3-47.3
	C95.3,21.9,74.1,0.8,48,0.8z M48,89.1C25.3,89.1,6.9,70.7,6.9,48C6.9,25.3,25.3,6.9,48,6.9c22.7,0,41.1,18.4,41.1,41.1
	C89.1,70.7,70.7,89.1,48,89.1z"/>
<g>
	<path class="st1" d="M26.9,51.3c-1.8,0-3.3-1.5-3.3-3.3l0,0c0-1.8,1.5-3.3,3.3-3.3h42.2c1.8,0,3.3,1.5,3.3,3.3l0,0
		c0,1.8-1.5,3.3-3.3,3.3H26.9z"/>
</g>
</svg>
